Input #0, mov,mp4,m4a,3gp,3g2,mj2, from 'DQS.mp4':
  Metadata:
    major_brand     : isom
    minor_version   : 512
    compatible_brands: isomiso2avc1mp41
    encoder         : Lavf58.76.100
  Duration: 00:00:00.26, start: 0.000000, bitrate: 24165 kb/s
  Stream #0:0(und): Video: h264 (High) (avc1 / 0x31637661), yuv420p, 3840x2160 [SAR 1:1 DAR 16:9], 25076 kb/s, 23.98 fps, 23.98 tbr, 24k tbn, 47.95 tbc (default)
    Metadata:
      handler_name    : VideoHandler
      vendor_id       : [0][0][0][0]
  Stream #0:1(und): Audio: mp3 (mp4a / 0x6134706D), 48000 Hz, stereo, fltp, 349 kb/s (default)
    Metadata:
      handler_name    : SoundHandler
      vendor_id       : [0][0][0][0]
Stream mapping:
  Stream #0:0 -> #0:0 (h264 (native) -> rawvideo (native))
Press [q] to stop, [?] for help
Output #0, rawvideo, to 'DQS.rawMovie.yuv':
  Metadata:
    major_brand     : isom
    minor_version   : 512
    compatible_brands: isomiso2avc1mp41
    encoder         : Lavf58.76.100
  Stream #0:0(und): Video: rawvideo (I420 / 0x30323449), yuv420p(progressive), 3840x2160 [SAR 1:1 DAR 16:9], q=2-31, 2386400 kb/s, 23.98 fps, 23.98 tbn (default)
    Metadata:
      handler_name    : VideoHandler
      vendor_id       : [0][0][0][0]
      encoder         : Lavc58.134.100 rawvideo
frame=    1 fps=0.0 q=-0.0 size=   12032kB time=00:00:00.04 bitrate=2363243.1kbits/s speed=0.808x    frame=    6 fps=0.0 q=-0.0 Lsize=   72900kB time=00:00:00.25 bitrate=2386400.8kbits/s speed= 1.6x    
video:72900kB audio:0kB subtitle:0kB other streams:0kB global headers:0kB muxing overhead: 0.000000%
